/* XPM */
static char *_87cd7acd63d4bf39e897b9a102d0fbc9225YCEciQgqbn9Z[] = {
/* columns rows colors chars-per-pixel */
"64 64 8 1 ",
"  c #4B2737",
". c #562D3F",
"X c #773B55",
"o c #6A344B",
"O c #5C3042",
"+ c #863E5A",
"@ c #943F61",
"# c #7E3A56",
/* pixels */
" .XXX..o...XX.oooo. ......oo...XXXXo..  ....  . ....XXXooo.XXX..",
". ....     .ooo.o      o.oo. o. oo.. o .. oo.ooo  . ..oo.. ..o.o",
"  oooOOOoOOooOoooOoooooooooOOOOOOOOOooOoooooOOoooooOOOOoOOooOooo",
" .o++@@#+###++###@@@+@+@+@@+++@@@#++@++#+#+#++#+####+#+++#+##o .",
".oo@++@@#@@+#++#+@+#@++@ooo#o#++@@@+@@#+++##+#++@@#+@@+@@+#+#O.o",
".oO+@++@@+@++###++#++#+o+o#o###++@+@##+++#+###+@@+@@+@@+@@++#O .",
"o O+@@         O  OO    OOOOOO      OO  OO OOO    OO    OO+@+O  ",
"  O@+@ oooooooOOooooooooooooOooooooooooooooooooooooooooooO@@+o X",
"X O@@@ o##@###++@@@+@+##@@+##+@@@+@@+####++@@###@+@@@@@+o @+@o.X",
"Xoo#@+ o@##@+++##+@@+++##@#@+@++@@@+++##+#@+#+#++@+@++@@o @++o.X",
"..o#+# o@@++++#+##++@@#+@+o#@@#@++++#+++#++++#++#+#+#++@oO+@+o.X",
"..o+## o@+++####+@####@+oooo######+#######o#oo##+#####++o +++ooo",
"o.o++# o@++#OO OOO  OOOO      OOO OO OO OOO OOOO OOO#++@o @+#o o",
"X O+#+ o+@+#OoooOoooooooooooooooooOoooooooooooOOoooO+@+@oO@#+o  ",
"X o#+@Oo@@#o o##@@@+@#@##+@@@@###+###+@@++###+@@+#o #+@@oO#@#ooo",
"XoO#+#Oo@+#o o#@+@+++@##+@@+@#+#+@@#@@@+@@+#+++@+@o #+#@oO##+oo.",
".oO#@#Oo++o# o@@#+#++#o++#+@++##++#@@#+@++++#o++@+o o###oO+#+O.o",
" .O+@#Oo+++# o@++###oooo####+##+########++##oo#++@oOo+##o +#+OoX",
" .O@#@ o@+o#Oo+@+#OO  O OO     O OOO OOO    OO#++@oO#+#+oO#++O X",
". O@@# o@@##OO@+o#Ooooooooooooooooooooooooooo ##++oOo++#oO#+#o..",
".oO+@@Oo#@#o O@+#o o+@@@++@+@@###+@@###@@+#+oO#o+#oO####o +##O .",
"ooo+@+Oo###o o+@@o o@@@++++@+#+#++++@#@@+@##oO#++#oO#@#+o #++o o",
"o.o@#+ o+#+# o#@+# o#@++#+++++#o##+++++++#+#o @###o #+@+oO+##ooo",
".oo@+# o++##Oo@### o@++###++##ooo#o###++#++#o +@#@o #+@@o ++#Oo.",
"XoO@##Oo@+#+ o##++Oo@@+#O OO O OOO    OO#+##oO@+@@oO##+@oO#+#O .",
"X.O@#oOo@@##Oo#+++Oo@++@OooooooooooooooOo#+#oO++@+OO#+@@oO##+O..",
"Xoo+o#Oo#@+oOo##+# o++@@Oo+@@@##@@##+#oOo#+#o ++++oO#++@oO+#+Oo.",
"o.ooooOo##ooOo#++# o++@#Oo@+@++##+@#++o #+++o #+++oO###+o #o+oo.",
"..O+#o o+##o o+++#Oo#++@Oo@@O OO   O+#oO++#+o o#+@oO#+##o oo#oo.",
"o o#o#Oo#++o o@+#o o@+++Oo@+OooooooO##o +###o o#+@oO##+@oOo#+o..",
"..o+o#Oo+#+#Oo@+@# o@@+# o+#Oo#o#+o +#o ++@@oOoo@@OO#+@@oO#o#oo.",
"..o###OO@#@oOo+@@# o#@+# o+# o+++#o #+oO#++@oOo+@+oO#@+@OO##+ooX",
"o.O#+# o#@##Oo@+++Oo##@# o#+ o#+##o +@o ##++oO#++@oO#+@+OO#o+o.X",
"o o+## o@@##Oo@@@+Oo@#+# o#+ oo#++oO@@o #++#oO#+++o #++#oO#o#OoX",
"o O@#+Oo++@#OO+@+#Oo#+## o##OooooooO@@o +@#@oO#++@oO##+@oOo#oO o",
".oo@@# o+++o O+@+# o++o# o#+O OO  OO+@o ++@@o ##@+oO###@oOoo#oo.",
"..o@+#Oo#+#o o++##Oo#+ooOo+##++@+@#+@+oO#++@oOoo+@oO#+@@oOo#+O .",
" .o+#+ o##oo o++o# o##+o o#+##++@@##++oO##++oOo#@@oO#+@@o #o@o..",
" .O+@+ o@##oOo@+#oOo+++# oooooooooooooo #+#+oO#++@o +++@oO##+oo.",
"  O#+@ o@@@oOo@@+oOo+++#O OO      OO  OO#+##oO##++o +#@+oO##+o..",
"o.O#@@Oo+@+#OO@#++Oo#+##+++#o#oo##oo##o#+@+#o #++@o #++#oO#++o .",
".oO#@+Oo@+##Oo#+#+Oo#++#@#+++#@+#++#o+++@@#@o ++@@oO#+##OO+++o X",
"XoO+#+Oo#+## o+#+# o###@@@#+++@#@+##++@+#@+@o #+@@oOo+#+O #++OoX",
"X.o++#Oo#@+#Oo+@##Oo##++@###+@@@@@##+@@#@@@+oO#+@+oOo#++o +#+O o",
"ooo@#+ O#+++ o@##+OooooooooooooooooooooooooooO##+@o oo+@oO@++ooo",
"o.o@## O##@@ o@@+#OO   OO OOO OOO     OOO O  O##++o o+@@oO+@+Oo.",
"..O+@# o@#+@Oo+@#o####oo#+++++##oooo#######+###++@oO#+@+oO@@+o X",
"ooo@## o#@++Oo@++#+@@+#++++#+++##o#+++##+#+++#++@+oO#@+@oO@#@o.X",
"o.o+#@Oo@++#Oo+#+#@#+#+#+@#@##@@+++#++@@+@#+++@+@@oO+++#oO##+O .",
". O+@+Oo@@##Oo#o#@+@###+@@@@#@@#@+###@@+@@##++@@+@o ++##o ###O  ",
"o.O#@@ o@+##OoooooooOooooooooooooooooooooooooooooooO#+@#oO+#+oo.",
"..o##@Oo++o#O O       OOOOOOOO OOOOOOOOO      OO   O##+@o +##oo.",
"o.o#@+Oo#++o##+++###oo##++oo##++######++##oooooo++###++#oO#++Ooo",
"o o+#+ o#@++++++++#+#o#++++#o++++++#+++++++#o@+@+++#++#@OO+@#o..",
"o.O@++Oo@#@+++++#@@@++@+@#++++++@##+++@@#++@+@@+@++++@+@o +@+o.o",
"  o@+@Oo@###++##@##@+@@@####++@@#@##+@@@@#++++@@@@++@@@@o @@+ooo",
". O+@+OoooOooooooooooooooooooOOOoooooooooooooooOOooooooooO+@@o.o",
". o@@#OOO    OOO    OOOOO   OOO      OOO        OOOO    OO++@O .",
"..o+@##@#++#+##@@+@+#++###o++#+@@++###+##+#@@+#+@+@@#+++@@+@+O .",
" .O@#@####++#@##+@@@+##@#ooo#+##+@#+#++@+#@+####+@@###++++@@@O o",
"o.o+@##+++##++@@@+@++@+@@@++@++@++++@+@@@@++@+@@++@+@+@@+++@+o.o",
"..OOOoooOoOooOOOooOOooooOOOOOOoooooooooooooOooooOOOoOooooOooOoo.",
"X.. .o o.o.o...o.o.oo.  .oo   ..oo..    . o.ooo  oo..o. o. o .. ",
"oXX. o  ooXXXXX.oXX.   oo.oo..oXXXo.. .......o .  .ooooXXX.o..  "
};
